<?xml version="1.0" encoding="utf-8" ?>
<svg xmlns="http://www.w3.org/2000/svg" xmlns:xlink="http://www.w3.org/1999/xlink" width="40" height="40">
	<path transform="scale(0.078125 0.078125)" d="M62.2261 66.1281C64.81 64.6073 67.0976 62.5359 69.4481 60.6828C92.3064 42.6606 119.483 32.4997 148.661 31.109C184.637 29.4122 222.467 43.3865 248.17 68.8963C253.347 63.1703 259.284 58.5028 265.656 54.1873C309.581 24.4369 368.225 25.9933 410.345 57.655C417.604 63.112 417.501 65.2842 427.075 65.2845C454.149 65.2851 454.089 67.3791 454.092 94.4992L454.084 262.963C454.085 275.971 454.348 283.659 455.969 296.448C459.806 326.731 451.586 353.367 433.206 377.116C448.285 396.63 464.365 415.346 479.779 434.589C485.627 441.89 489.402 447.012 488.257 456.812C485.977 476.331 461.873 482.034 446.962 469.886C438.147 462.704 417.659 434.122 409.308 423.244L397.108 406.996C371.884 421.103 336.965 421.967 310.641 411.318C303.295 408.347 296.539 404.413 289.703 400.445C278.585 411.144 265.645 433.503 249.697 425.443C242.822 421.968 237.337 414.896 231.949 409.53C200.628 378.333 159.059 362.207 115.564 376.566C104.047 380.368 93.2619 386.353 82.836 392.49C79.1117 394.683 75.1803 397.571 70.9638 398.681C66.2409 399.923 43.6107 399.435 38.1326 398.812C19.2313 396.66 23.6253 373.789 23.6335 359.664L23.6248 91.9902C23.5863 83.5246 22.2992 73.8969 30.1013 68.1523C37.1301 62.9771 53.8556 64.9199 62.2261 66.1281ZM145.959 72.6052C124.523 73.9958 104.957 82.2859 87.3175 94.2419C79.563 99.4978 73.6706 104.474 65.0971 108.774C64.8633 127.895 65.0202 147.033 65.0182 166.155L65.0243 341.01C65.0252 343.6 65.562 351.676 65.1617 353.513L65.4532 353.689L65.5037 353.873C68.3356 354.429 79.3867 347.172 82.458 345.533C135.219 317.377 197.366 328.091 243.72 364.534C248.194 368.051 252.336 372.237 257.116 375.317C258.383 373.974 259.591 372.677 261.084 371.583L261.308 371.415C229.43 325.35 238.25 264.603 280.674 228.533C285.401 224.636 290.197 220.013 295.553 217.047C286.466 219.761 278.273 228.912 268.34 223.599C260.128 219.207 260.48 210.85 264.493 203.478C272.815 188.189 296.654 176.36 312.895 171.679C332.121 166.137 350.194 167.296 367.924 177.057C377.014 182.061 391.822 194.734 394.695 205.121C395.322 207.387 395.267 210.001 396.155 212.153C397.59 215.636 409.711 223.883 414.452 224.768C414.725 217.507 414.6 210.223 414.599 202.956L414.597 129.682C414.598 123.598 414.789 117.463 414.633 111.386C404.025 106.321 395.981 98.0223 386.47 91.3357C348.335 64.5267 301.791 71.8677 267.41 100.17C259.476 106.702 250.431 119.047 238.711 113.392C233.46 110.858 224.257 101.588 219.132 97.4137C199.434 81.374 171.841 69.8565 145.959 72.6052ZM346.614 241.609C287.328 244.165 259.23 320.29 304.189 360.907C317.383 372.828 334.911 379.768 352.811 378.416C390.538 375.516 420.276 343.47 417.335 305.124C414.588 269.305 382.624 240.327 346.614 241.609Z"/>
	<path transform="scale(0.078125 0.078125)" d="M168.755 141.687C149.597 137.05 132.446 138.724 115 147.42C107.852 150.983 101.313 156.853 93.7443 150.654C86.7337 144.912 84.4485 133.77 90.5914 126.606C101.237 114.192 130.192 102.567 145.669 101.356C168.957 98.4645 196.128 110.829 212.715 126.402C218.926 132.234 225.425 139.087 222.855 148.328C220.984 155.056 214.567 160.394 207.353 159.045C198.853 157.455 182.103 145.484 168.755 141.687Z"/>
	<path transform="scale(0.078125 0.078125)" d="M318.305 143.544C310.376 145.339 302.57 148.085 295.113 151.306C287.068 154.781 261.48 170.637 259.821 150.12C257.645 123.208 307.107 104.802 327.92 103.105C343.677 100.993 361.216 107.03 374.307 115.307C379.647 118.683 391.214 127.151 392.415 133.251C393.803 140.297 384.719 151.714 377.842 152.41C364.979 153.713 350.138 137.215 318.305 143.544Z"/>
	<path transform="scale(0.078125 0.078125)" d="M165.812 207.896C147.013 203.447 129.732 205.765 112.885 215.217C106.032 219.061 99.2993 224.285 92.0173 217.921C84.8258 211.636 85.2653 199.058 91.3341 192.221C103.604 178.4 130.666 167.448 148.397 166.356C171.021 164.595 196.683 176.925 212.121 192.584C217.818 198.361 225.707 206.851 223.37 215.732C221.513 222.785 213.658 227.781 206.483 226.063C202.022 224.994 195.386 220.137 190.933 217.844C182.821 213.667 174.586 210.373 165.812 207.896Z"/>
	<path transform="scale(0.078125 0.078125)" d="M162.029 275.166C142.02 270.958 128.484 275.376 111.167 284.767C107.81 286.588 104.221 289.311 100.325 289.701C84.7025 291.262 82.8597 270.083 91.8252 259.685C104.289 245.231 127.484 234.221 146.838 232.854C170.327 230.667 197.052 244.266 212.149 261.343C216.576 266.352 222.409 272.416 220.555 279.707C218.508 287.756 207.868 294.038 199.815 292.262C194.766 291.149 190.368 287.173 185.844 284.75C178.158 280.632 170.481 277.369 162.029 275.166Z"/>
</svg>
